<svg xmlns="http://www.w3.org/2000/svg" xmlns:xlink="http://www.w3.org/1999/xlink" id="Layer_1" x="0px" y="0px" viewBox="0 0 363.9 62.9" style="enable-background:new 0 0 363.9 62.9;" xml:space="preserve"><style type="text/css">	.st0{fill:#FFFFFF;}	.st1{clip-path:url(#SVGID_2_);fill:#FFFFFF;}	.st2{clip-path:url(#SVGID_4_);fill:url(#SVGID_5_);}	.st3{clip-path:url(#SVGID_7_);fill:url(#SVGID_8_);}	.st4{clip-path:url(#SVGID_10_);fill:url(#SVGID_11_);}	.st5{clip-path:url(#SVGID_13_);fill:url(#SVGID_14_);}</style><g>	<path class="st0" d="M231.6,24.3c1.9,1.2,3.6,2,4.9,2.5c1.3,0.5,2.6,0.7,3.9,0.7c1.3,0,2.3-0.3,3.1-0.9c0.8-0.6,1.2-1.3,1.2-2.2  c0-1.3-1.4-2.7-4.2-4.3c-0.4-0.3-0.8-0.5-1-0.6l-2.1-1.2c-2.1-1.2-3.6-2.5-4.6-3.9c-1-1.5-1.5-3.1-1.5-5c0-2.5,0.9-4.6,2.9-6.2  c1.9-1.6,4.3-2.4,7.3-2.4c1.1,0,2.3,0.1,3.6,0.4c1.3,0.3,2.7,0.7,4.3,1.2v7.3c-1.5-0.9-2.9-1.7-4.3-2.2c-1.4-0.5-2.5-0.8-3.4-0.8  c-1.1,0-1.9,0.2-2.5,0.7c-0.6,0.4-0.9,1.1-0.9,1.8c0,0.5,0.2,1.1,0.5,1.5c0.4,0.5,0.9,0.9,1.6,1.3l3.7,2c3.1,1.7,5.1,3.3,6.2,4.7  c1.1,1.4,1.6,3.1,1.6,5.1c0,3-1,5.5-3.1,7.4c-2.1,1.9-4.8,2.8-8.3,2.8c-1.2,0-2.4-0.1-3.8-0.4c-1.4-0.2-2.9-0.6-4.5-1.1L231.6,24.3  z"></path>	<polygon class="st0" points="344,33.2 344,1.8 363.3,1.8 363.3,8.3 351.2,8.3 351.2,14 361.6,14 361.6,20.4 351.2,20.4 351.2,26.6   363.5,26.6 363.5,33.2  "></polygon>	<polygon class="st0" points="322.9,33.2 322.9,8.4 313,8.4 313,1.8 340.4,1.8 340.4,8.4 330.4,8.4 330.4,33.2  "></polygon>	<path class="st0" d="M298.7,23.2h8.2l-4.1-9.8L298.7,23.2z M287,33.2l16-32.4h0.5l15.7,32.4h-7.8l-2-4.6h-12.7l-2,4.6  C294.5,33.2,287,33.2,287,33.2z"></path>	<path class="st0" d="M284,15.8V31c-2.1,1.1-4.2,1.8-6.2,2.4c-2,0.5-3.9,0.8-5.8,0.8c-4.8,0-8.7-1.6-11.9-4.7s-4.7-7.1-4.7-11.9  c0-4.9,1.6-8.9,4.8-12c3.2-3.2,7.2-4.8,12.1-4.8c1.9,0,3.6,0.3,5.3,0.8c1.7,0.5,3.3,1.3,4.8,2.3l-0.8,7.9c-1.5-1.5-2.9-2.6-4.4-3.2  c-1.5-0.7-3-1-4.5-1c-2.8,0-5.1,0.9-7,2.8s-2.8,4.2-2.8,7.1c0,3,0.9,5.4,2.7,7.3c1.8,1.9,4.1,2.8,6.9,2.8c0.6,0,1.3-0.1,2-0.2  c0.7-0.1,1.4-0.3,2.1-0.5v-4.6h-5.9v-6.4C270.7,15.8,284,15.8,284,15.8z"></path>	<g>		<g>							<rect id="SVGID_00000049199932029264623440000013241553889599020714_" x="152.5" y="1.8" class="st0" width="7.5" height="31.4"></rect>		</g>		<g>			<defs>				<rect id="SVGID_1_" x="152.5" y="1.8" width="7.5" height="31.4"></rect>			</defs>			<clipPath id="SVGID_2_">				<use xlink:href="#SVGID_1_" style="overflow:visible;"></use>			</clipPath>			<rect x="152.5" y="1.8" class="st1" width="7.5" height="31.4"></rect>		</g>	</g>	<g>		<g>			<path id="SVGID_00000110429725646050811730000011854282794898746043_" class="st0" d="M226.6,15.8V31c-2.1,1.1-4.2,1.8-6.2,2.4    c-2,0.5-3.9,0.8-5.8,0.8c-4.8,0-8.7-1.6-11.9-4.7c-3.2-3.2-4.7-7.1-4.7-11.9c0-4.9,1.6-8.9,4.8-12c3.2-3.2,7.2-4.8,12.1-4.8    c1.9,0,3.6,0.2,5.3,0.8c1.7,0.5,3.3,1.3,4.8,2.3l-0.8,7.9c-1.5-1.5-2.9-2.6-4.4-3.2c-1.4-0.7-3-1-4.6-1c-2.8,0-5.1,0.9-7,2.8    s-2.8,4.2-2.8,7.1c0,3,0.9,5.4,2.7,7.3c1.8,1.9,4.1,2.8,6.9,2.8c0.6,0,1.3-0.1,2-0.2c0.7-0.1,1.4-0.3,2.1-0.5v-4.6h-5.9v-6.4    C213.3,15.8,226.6,15.8,226.6,15.8z"></path>		</g>	</g>	<polygon class="st0" points="165.6,33.2 165.6,0.8 166.3,0.8 185.9,19.1 185.9,1.8 192.8,1.8 192.8,34.4 192.1,34.4 172.5,16.1   172.5,33.2  "></polygon>	<polygon class="st0" points="120.5,33.2 120.5,1.8 127.9,1.8 127.9,15.5 138.3,1.8 147.2,1.8 135.4,16.7 148.1,33.2 139.1,33.2   127.9,18.7 127.9,33.2  "></polygon>	<g>		<g>			<defs>				<path id="SVGID_3_" d="M362.4,42.4l-0.1,2.5c-0.5-0.3-1-0.6-1.6-0.7c-0.6-0.2-1.1-0.3-1.8-0.3c-1,0-1.8,0.3-2.4,0.8     c-0.6,0.5-0.8,1.2-0.8,2.2c0,1.2,1,2.5,3.1,3.8c0.4,0.3,0.7,0.4,0.9,0.6c1.4,1,2.4,1.9,3,2.8c0.5,0.8,0.8,1.8,0.8,3     c0,1.8-0.6,3.2-1.7,4.3c-1.1,1.1-2.6,1.6-4.4,1.6c-0.7,0-1.5-0.1-2.2-0.3c-0.7-0.2-1.3-0.4-1.9-0.7l0.3-2.5     c0.6,0.4,1.2,0.7,1.9,1c0.7,0.2,1.4,0.3,2.1,0.3c1.1,0,1.9-0.3,2.5-0.8c0.6-0.6,0.9-1.4,0.9-2.4c0-0.8-0.2-1.5-0.6-2.1     c-0.4-0.6-1.4-1.4-3-2.5c-1.6-1.1-2.7-2.1-3.3-2.8c-0.5-0.8-0.8-1.7-0.8-2.7c0-1.6,0.5-3,1.6-4c1-1,2.4-1.5,4.1-1.5     c0.6,0,1.2,0,1.8,0.1C361.2,42.1,361.8,42.2,362.4,42.4 M334.1,42.1h9.3v2.1h-6.8V51h6.4v2.2h-6.4v7.3h7.1v2.1h-9.7L334.1,42.1     L334.1,42.1z M304.9,42.1h3.7l5.3,16.6l5.3-16.6h3.8v20.5h-2.4V44.4l-5.8,18.2h-1.8l-5.8-18.2v18.2h-2.2L304.9,42.1L304.9,42.1z      M287.1,41.8c2.4,0,4.3,0.9,5.6,2.7c1.3,1.8,2,4.4,2,7.8c0,3.4-0.7,6-2,7.8c-1.3,1.8-3.2,2.7-5.6,2.7s-4.2-0.9-5.5-2.7     c-1.3-1.8-2-4.4-2-7.8c0-3.4,0.7-6,2-7.8C282.8,42.7,284.7,41.8,287.1,41.8z M287.1,43.9c-1.6,0-2.8,0.7-3.6,2.1     s-1.2,3.5-1.2,6.3c0,2.8,0.4,4.8,1.2,6.3c0.8,1.4,2,2.1,3.6,2.1s2.8-0.7,3.6-2.2c0.8-1.4,1.2-3.5,1.2-6.3c0-2.7-0.4-4.8-1.2-6.2     C289.8,44.7,288.6,43.9,287.1,43.9z M257.1,42.1h2.5v8.8h7.1v-8.8h2.5v20.5h-2.5v-9.5h-7.1v9.5h-2.5V42.1z M226.6,42.1h2.9     l4.6,9.5l4.5-9.5h2.7l-6,11.9v8.6h-2.5v-8.6L226.6,42.1z M208,42.1h3.5c2.7,0,4.6,0.4,5.8,1.2c1.1,0.8,1.7,2.2,1.7,4.1     c0,1.3-0.4,2.4-1.1,3.3c-0.7,0.8-1.7,1.4-3.1,1.6c0.7,0.1,1.2,0.3,1.6,0.7c0.4,0.4,0.8,1.1,1.2,2.3l2.6,7.3h-2.7l-2.2-6.5     c-0.4-1.2-0.8-1.9-1.2-2.2c-0.4-0.3-1.1-0.5-2-0.5h-1.4v9.2H208L208,42.1L208,42.1z M210.5,44.2v7h1.1c1.7,0,3-0.3,3.6-0.8     c0.7-0.6,1-1.5,1-2.9c0-1.2-0.3-2-1-2.5c-0.7-0.5-1.8-0.7-3.6-0.7L210.5,44.2L210.5,44.2z M184.2,42.1h2.5v13.2     c0,1.9,0.3,3.3,0.9,4.2c0.6,0.8,1.6,1.3,2.9,1.3c1.4,0,2.3-0.4,2.9-1.3c0.6-0.8,0.9-2.2,0.9-4.2V42.1h2.4v12.9     c0,2.7-0.5,4.6-1.5,5.9c-1,1.3-2.6,1.9-4.8,1.9c-2.1,0-3.7-0.6-4.8-1.9c-1-1.3-1.5-3.2-1.5-5.9L184.2,42.1L184.2,42.1z      M160.5,42.1h2.9l4.1,7.7l4.3-7.7h2.7l-5.6,9.7l6,10.8h-2.9l-4.7-8.6l-4.8,8.6h-2.7l6.1-10.6L160.5,42.1z M138.1,42.1h2.5v13.2     c0,1.9,0.3,3.3,0.9,4.2c0.6,0.8,1.6,1.3,2.9,1.3c1.4,0,2.3-0.4,2.9-1.3c0.6-0.8,0.9-2.2,0.9-4.2V42.1h2.4v12.9     c0,2.7-0.5,4.6-1.5,5.9c-1,1.3-2.6,1.9-4.8,1.9c-2.1,0-3.7-0.6-4.8-1.9c-1-1.3-1.5-3.2-1.5-5.9L138.1,42.1L138.1,42.1z      M120.5,42.1h2.5v18.3h6.7v2.2h-9.3C120.5,62.6,120.5,42.1,120.5,42.1z"></path>			</defs>			<clipPath id="SVGID_4_">				<use xlink:href="#SVGID_3_" style="overflow:visible;"></use>			</clipPath>							<linearGradient id="SVGID_5_" gradientUnits="userSpaceOnUse" x1="240.7233" y1="4.5389" x2="243.2748" y2="34.089" gradientTransform="matrix(1 0 0 -1 0 71.6608)">				<stop offset="0" style="stop-color:#7A5822"></stop>				<stop offset="0.12" style="stop-color:#8D7033"></stop>				<stop offset="0.5" style="stop-color:#A78E68"></stop>				<stop offset="0.79" style="stop-color:#98804B"></stop>				<stop offset="0.87" style="stop-color:#9B7C37"></stop>				<stop offset="1" style="stop-color:#80641E"></stop>			</linearGradient>			<rect x="120.5" y="41.8" class="st2" width="243" height="21.1"></rect>		</g>	</g>	<g>		<g>			<g>				<defs>					<path id="SVGID_6_" d="M21.5,62.8L0,38.4V26.2l32.2,36.6H21.5z M0,62.8h10.7L0,50.6V62.8z M42.9,62.8h10.7h10.7H53.7L0,1.8V14      L42.9,62.8z"></path>				</defs>				<clipPath id="SVGID_7_">					<use xlink:href="#SVGID_6_" style="overflow:visible;"></use>				</clipPath>									<linearGradient id="SVGID_8_" gradientUnits="userSpaceOnUse" x1="10.6793" y1="16.6447" x2="53.7222" y2="62.1229" gradientTransform="matrix(1 0 0 -1 0 71.6608)">					<stop offset="0" style="stop-color:#865400"></stop>					<stop offset="0.12" style="stop-color:#986D07"></stop>					<stop offset="0.5" style="stop-color:#B0895B"></stop>					<stop offset="0.79" style="stop-color:#A17E36"></stop>					<stop offset="0.87" style="stop-color:#A67800"></stop>					<stop offset="1" style="stop-color:#896100"></stop>				</linearGradient>				<rect y="1.8" class="st3" width="64.4" height="61"></rect>			</g>		</g>		<g>			<g>				<defs>					<path id="SVGID_9_" d="M85.9,62.8l21.5-24.4V26.2L75.1,62.8H85.9z M107.3,62.8H96.6l10.7-12.2V62.8z M42.9,62.8h10.7l53.7-61      V14L64.4,62.8H53.7H42.9z"></path>				</defs>				<clipPath id="SVGID_10_">					<use xlink:href="#SVGID_9_" style="overflow:visible;"></use>				</clipPath>									<linearGradient id="SVGID_11_" gradientUnits="userSpaceOnUse" x1="53.6158" y1="16.6437" x2="96.667" y2="62.1219" gradientTransform="matrix(1 0 0 -1 0 71.6608)">					<stop offset="0" style="stop-color:#865400"></stop>					<stop offset="0.12" style="stop-color:#986D07"></stop>					<stop offset="0.5" style="stop-color:#B0895B"></stop>					<stop offset="0.79" style="stop-color:#A17E36"></stop>					<stop offset="0.87" style="stop-color:#A67800"></stop>					<stop offset="1" style="stop-color:#896100"></stop>				</linearGradient>				<rect x="42.9" y="1.8" class="st4" width="64.4" height="61"></rect>			</g>		</g>		<g>			<g>				<defs>					<path id="SVGID_12_" d="M53.7,26.2L21.5,62.8h10.7l21.5-24.4l21.5,24.4h10.7L53.7,26.2z M53.7,1.8L0,62.8h10.7L53.7,14      l42.9,48.8h10.7L53.7,1.8z M53.7,50.6L42.9,62.8h21.5L53.7,50.6z"></path>				</defs>				<clipPath id="SVGID_13_">					<use xlink:href="#SVGID_12_" style="overflow:visible;"></use>				</clipPath>									<linearGradient id="SVGID_14_" gradientUnits="userSpaceOnUse" x1="53.6743" y1="8.9038" x2="53.6743" y2="69.8697" gradientTransform="matrix(1 0 0 -1 0 71.6608)">					<stop offset="0" style="stop-color:#865400"></stop>					<stop offset="0.12" style="stop-color:#986D07"></stop>					<stop offset="0.28" style="stop-color:#CFAC53"></stop>					<stop offset="0.4" style="stop-color:#C9A159"></stop>					<stop offset="0.5" style="stop-color:#FFEDA7"></stop>					<stop offset="0.69" style="stop-color:#CFAC53"></stop>					<stop offset="0.79" style="stop-color:#A17E36"></stop>					<stop offset="0.87" style="stop-color:#A67800"></stop>					<stop offset="0.91" style="stop-color:#C5901A"></stop>					<stop offset="1" style="stop-color:#896100"></stop>				</linearGradient>				<rect y="1.8" class="st5" width="107.3" height="61"></rect>			</g>		</g>	</g></g></svg>